<mxfile host="app.diagrams.net" agent="Mozilla/5.0 (Windows NT 10.0; Win64; x64) AppleWebKit/537.36 (KHTML, like Gecko) Chrome/135.0.0.0 Safari/537.36 Edg/135.0.0.0" version="26.2.14">
  <diagram name="Page-1" id="7A9fTDDTlGWc04F67tVm">
    <mxGraphModel grid="1" page="1" gridSize="10" guides="1" tooltips="1" connect="1" arrows="1" fold="1" pageScale="1" pageWidth="850" pageHeight="1100" math="0" shadow="0">
      <root>
        <mxCell id="0" />
        <mxCell id="1" parent="0" />
        <mxCell id="RtSj9nyPrv8z8E6BE1nY-90" value="" style="endArrow=classic;html=1;rounded=0;exitX=1;exitY=0.3333333333333333;exitDx=0;exitDy=0;entryX=0;entryY=0.5;entryDx=0;entryDy=0;exitPerimeter=0;" edge="1" parent="1" source="4MNxsXCdfYf5r7-GUmrG-5" target="RtSj9nyPrv8z8E6BE1nY-35">
          <mxGeometry width="50" height="50" relative="1" as="geometry">
            <mxPoint x="816" y="-85" as="sourcePoint" />
            <mxPoint x="910" y="265" as="targetPoint" />
          </mxGeometry>
        </mxCell>
        <mxCell id="4MNxsXCdfYf5r7-GUmrG-1" value="&lt;font style=&quot;font-size: 24px;&quot;&gt;SMART LOKER&lt;/font&gt;" style="swimlane;whiteSpace=wrap;html=1;" vertex="1" parent="1">
          <mxGeometry x="480" y="-850" width="690" height="1300" as="geometry" />
        </mxCell>
        <mxCell id="4MNxsXCdfYf5r7-GUmrG-3" value="&lt;font style=&quot;font-size: 18px;&quot;&gt;LOGIN/DAFTAR&lt;/font&gt;" style="ellipse;whiteSpace=wrap;html=1;" vertex="1" parent="4MNxsXCdfYf5r7-GUmrG-1">
          <mxGeometry x="123.75" y="30" width="207.5" height="70" as="geometry" />
        </mxCell>
        <mxCell id="4MNxsXCdfYf5r7-GUmrG-28" value="&lt;span style=&quot;font-size: 18px;&quot;&gt;BOOKING&lt;/span&gt;" style="ellipse;whiteSpace=wrap;html=1;" vertex="1" parent="4MNxsXCdfYf5r7-GUmrG-1">
          <mxGeometry x="130" y="230" width="207.5" height="70" as="geometry" />
        </mxCell>
        <mxCell id="4MNxsXCdfYf5r7-GUmrG-29" value="&lt;span style=&quot;font-size: 18px;&quot;&gt;PEMBAYARAN&lt;/span&gt;" style="ellipse;whiteSpace=wrap;html=1;" vertex="1" parent="4MNxsXCdfYf5r7-GUmrG-1">
          <mxGeometry x="120" y="320" width="207.5" height="70" as="geometry" />
        </mxCell>
        <mxCell id="4MNxsXCdfYf5r7-GUmrG-30" value="&lt;span style=&quot;font-size: 18px;&quot;&gt;AKSES LOKER&lt;/span&gt;" style="ellipse;whiteSpace=wrap;html=1;" vertex="1" parent="4MNxsXCdfYf5r7-GUmrG-1">
          <mxGeometry x="120" y="400" width="207.5" height="70" as="geometry" />
        </mxCell>
        <mxCell id="4MNxsXCdfYf5r7-GUmrG-34" value="&lt;span style=&quot;font-size: 18px;&quot;&gt;MENGGUNAKAN LOKER&lt;/span&gt;" style="ellipse;whiteSpace=wrap;html=1;" vertex="1" parent="4MNxsXCdfYf5r7-GUmrG-1">
          <mxGeometry x="120" y="560" width="207.5" height="70" as="geometry" />
        </mxCell>
        <mxCell id="4MNxsXCdfYf5r7-GUmrG-35" value="&lt;span style=&quot;font-size: 18px;&quot;&gt;MEMPERPANJANG&amp;nbsp; WAKTU SEWA&lt;/span&gt;" style="ellipse;whiteSpace=wrap;html=1;" vertex="1" parent="4MNxsXCdfYf5r7-GUmrG-1">
          <mxGeometry x="118.75" y="720" width="207.5" height="70" as="geometry" />
        </mxCell>
        <mxCell id="RtSj9nyPrv8z8E6BE1nY-32" value="&lt;font style=&quot;font-size: 18px;&quot;&gt;MEMBERI RATING&lt;/font&gt;" style="ellipse;whiteSpace=wrap;html=1;" vertex="1" parent="4MNxsXCdfYf5r7-GUmrG-1">
          <mxGeometry x="110" y="1140" width="205" height="80" as="geometry" />
        </mxCell>
        <mxCell id="RtSj9nyPrv8z8E6BE1nY-33" value="&lt;span style=&quot;font-size: 18px;&quot;&gt;MELIHAT DATA TRANSAKSI&lt;/span&gt;" style="ellipse;whiteSpace=wrap;html=1;" vertex="1" parent="4MNxsXCdfYf5r7-GUmrG-1">
          <mxGeometry x="410" y="970" width="207.5" height="70" as="geometry" />
        </mxCell>
        <mxCell id="RtSj9nyPrv8z8E6BE1nY-35" value="&lt;span style=&quot;font-size: 18px;&quot;&gt;MANAGE STATUS LOKER&lt;/span&gt;" style="ellipse;whiteSpace=wrap;html=1;" vertex="1" parent="4MNxsXCdfYf5r7-GUmrG-1">
          <mxGeometry x="420" y="1070" width="207.5" height="70" as="geometry" />
        </mxCell>
        <mxCell id="RtSj9nyPrv8z8E6BE1nY-34" value="&lt;span style=&quot;font-size: 18px;&quot;&gt;HANDLE LAPORAN&lt;/span&gt;" style="ellipse;whiteSpace=wrap;html=1;" vertex="1" parent="4MNxsXCdfYf5r7-GUmrG-1">
          <mxGeometry x="420" y="1160" width="207.5" height="70" as="geometry" />
        </mxCell>
        <mxCell id="RtSj9nyPrv8z8E6BE1nY-37" value="" style="endArrow=classic;html=1;rounded=0;exitX=1;exitY=0.5;exitDx=0;exitDy=0;entryX=0;entryY=0.5;entryDx=0;entryDy=0;" edge="1" parent="4MNxsXCdfYf5r7-GUmrG-1" source="4MNxsXCdfYf5r7-GUmrG-35" target="RtSj9nyPrv8z8E6BE1nY-35">
          <mxGeometry width="50" height="50" relative="1" as="geometry">
            <mxPoint x="235" y="840" as="sourcePoint" />
            <mxPoint x="285" y="790" as="targetPoint" />
          </mxGeometry>
        </mxCell>
        <mxCell id="RtSj9nyPrv8z8E6BE1nY-38" value="EXTEND" style="edgeLabel;html=1;align=center;verticalAlign=middle;resizable=0;points=[];" vertex="1" connectable="0" parent="RtSj9nyPrv8z8E6BE1nY-37">
          <mxGeometry x="-0.004" y="-2" relative="1" as="geometry">
            <mxPoint y="-1" as="offset" />
          </mxGeometry>
        </mxCell>
        <mxCell id="RtSj9nyPrv8z8E6BE1nY-42" value="&lt;span style=&quot;font-size: 18px;&quot;&gt;MENAMPILKAN DAFTAR LOKER&lt;/span&gt;" style="ellipse;whiteSpace=wrap;html=1;" vertex="1" parent="4MNxsXCdfYf5r7-GUmrG-1">
          <mxGeometry x="120" y="130" width="207.5" height="70" as="geometry" />
        </mxCell>
        <mxCell id="RtSj9nyPrv8z8E6BE1nY-45" value="&lt;font style=&quot;font-size: 14px;&quot;&gt;MONITORING&lt;/font&gt;&lt;div&gt;&lt;font style=&quot;font-size: 14px;&quot;&gt;&amp;nbsp;STATUS LOKER DAN LOG TRANSAKSI&lt;/font&gt;&lt;/div&gt;" style="ellipse;whiteSpace=wrap;html=1;" vertex="1" parent="4MNxsXCdfYf5r7-GUmrG-1">
          <mxGeometry x="120" y="480" width="207.5" height="70" as="geometry" />
        </mxCell>
        <mxCell id="RtSj9nyPrv8z8E6BE1nY-67" value="&lt;span style=&quot;font-size: 18px;&quot;&gt;NOTIFKASI WAKTU LOKER &lt;/span&gt;&lt;font style=&quot;font-size: 14px;&quot;&gt;(jika mau habis)&lt;/font&gt;" style="ellipse;whiteSpace=wrap;html=1;" vertex="1" parent="4MNxsXCdfYf5r7-GUmrG-1">
          <mxGeometry x="117.5" y="640" width="207.5" height="70" as="geometry" />
        </mxCell>
        <mxCell id="RtSj9nyPrv8z8E6BE1nY-70" value="&lt;span style=&quot;font-size: 18px;&quot;&gt;PEMBAYARAN TAMBAHAN WAKTU&lt;/span&gt;" style="ellipse;whiteSpace=wrap;html=1;" vertex="1" parent="4MNxsXCdfYf5r7-GUmrG-1">
          <mxGeometry x="110" y="800" width="207.5" height="70" as="geometry" />
        </mxCell>
        <mxCell id="RtSj9nyPrv8z8E6BE1nY-77" value="" style="endArrow=classic;html=1;rounded=0;exitX=1;exitY=0.5;exitDx=0;exitDy=0;entryX=0;entryY=0.5;entryDx=0;entryDy=0;" edge="1" parent="4MNxsXCdfYf5r7-GUmrG-1" source="RtSj9nyPrv8z8E6BE1nY-32" target="RtSj9nyPrv8z8E6BE1nY-34">
          <mxGeometry width="50" height="50" relative="1" as="geometry">
            <mxPoint x="336" y="765" as="sourcePoint" />
            <mxPoint x="430" y="1115" as="targetPoint" />
          </mxGeometry>
        </mxCell>
        <mxCell id="RtSj9nyPrv8z8E6BE1nY-78" value="EXTEND" style="edgeLabel;html=1;align=center;verticalAlign=middle;resizable=0;points=[];" connectable="0" vertex="1" parent="RtSj9nyPrv8z8E6BE1nY-77">
          <mxGeometry x="-0.004" y="-2" relative="1" as="geometry">
            <mxPoint y="-1" as="offset" />
          </mxGeometry>
        </mxCell>
        <mxCell id="RtSj9nyPrv8z8E6BE1nY-80" value="&lt;span style=&quot;font-size: 18px;&quot;&gt;MEMBERI AKSES BARU&lt;/span&gt;" style="ellipse;whiteSpace=wrap;html=1;" vertex="1" parent="4MNxsXCdfYf5r7-GUmrG-1">
          <mxGeometry x="110" y="970" width="205" height="80" as="geometry" />
        </mxCell>
        <mxCell id="RtSj9nyPrv8z8E6BE1nY-83" value="&lt;span style=&quot;font-size: 18px;&quot;&gt;PEMBAYARAN DENDA&lt;/span&gt;" style="ellipse;whiteSpace=wrap;html=1;" vertex="1" parent="4MNxsXCdfYf5r7-GUmrG-1">
          <mxGeometry x="110" y="880" width="205" height="80" as="geometry" />
        </mxCell>
        <mxCell id="RtSj9nyPrv8z8E6BE1nY-86" value="&lt;span style=&quot;font-size: 18px;&quot;&gt;MENYITA BARANG&lt;/span&gt;" style="ellipse;whiteSpace=wrap;html=1;" vertex="1" parent="4MNxsXCdfYf5r7-GUmrG-1">
          <mxGeometry x="410" y="880" width="207.5" height="70" as="geometry" />
        </mxCell>
        <mxCell id="RtSj9nyPrv8z8E6BE1nY-87" value="" style="endArrow=classic;html=1;rounded=0;exitX=1;exitY=0.5;exitDx=0;exitDy=0;entryX=0;entryY=0.5;entryDx=0;entryDy=0;" edge="1" parent="4MNxsXCdfYf5r7-GUmrG-1" source="RtSj9nyPrv8z8E6BE1nY-83" target="RtSj9nyPrv8z8E6BE1nY-86">
          <mxGeometry width="50" height="50" relative="1" as="geometry">
            <mxPoint x="336" y="765" as="sourcePoint" />
            <mxPoint x="430" y="1115" as="targetPoint" />
          </mxGeometry>
        </mxCell>
        <mxCell id="RtSj9nyPrv8z8E6BE1nY-88" value="EXTEND" style="edgeLabel;html=1;align=center;verticalAlign=middle;resizable=0;points=[];" connectable="0" vertex="1" parent="RtSj9nyPrv8z8E6BE1nY-87">
          <mxGeometry x="-0.004" y="-2" relative="1" as="geometry">
            <mxPoint y="-1" as="offset" />
          </mxGeometry>
        </mxCell>
        <mxCell id="FskOcWJOCiyLMdRQB566-1" value="&lt;font style=&quot;font-size: 18px;&quot;&gt;MENGAMBIL BARANG&amp;nbsp;&lt;/font&gt;" style="ellipse;whiteSpace=wrap;html=1;" vertex="1" parent="4MNxsXCdfYf5r7-GUmrG-1">
          <mxGeometry x="110" y="1050" width="205" height="80" as="geometry" />
        </mxCell>
        <mxCell id="4MNxsXCdfYf5r7-GUmrG-4" value="USER" style="shape=umlActor;verticalLabelPosition=bottom;verticalAlign=top;html=1;outlineConnect=0;" vertex="1" parent="1">
          <mxGeometry x="290" y="-450" width="100" height="160" as="geometry" />
        </mxCell>
        <mxCell id="4MNxsXCdfYf5r7-GUmrG-5" value="IOT" style="shape=umlActor;verticalLabelPosition=bottom;verticalAlign=top;html=1;outlineConnect=0;" vertex="1" parent="1">
          <mxGeometry x="290" y="120" width="100" height="160" as="geometry" />
        </mxCell>
        <mxCell id="4MNxsXCdfYf5r7-GUmrG-6" value="SISTEM" style="shape=umlActor;verticalLabelPosition=bottom;verticalAlign=top;html=1;outlineConnect=0;" vertex="1" parent="1">
          <mxGeometry x="1220" y="-450" width="100" height="160" as="geometry" />
        </mxCell>
        <mxCell id="4MNxsXCdfYf5r7-GUmrG-7" value="ADMIN" style="shape=umlActor;verticalLabelPosition=bottom;verticalAlign=top;html=1;outlineConnect=0;" vertex="1" parent="1">
          <mxGeometry x="1220" y="160" width="100" height="160" as="geometry" />
        </mxCell>
        <mxCell id="4MNxsXCdfYf5r7-GUmrG-32" value="" style="endArrow=classic;html=1;rounded=0;exitX=1;exitY=0.3333333333333333;exitDx=0;exitDy=0;exitPerimeter=0;entryX=0;entryY=0.5;entryDx=0;entryDy=0;" edge="1" parent="1" source="4MNxsXCdfYf5r7-GUmrG-4" target="4MNxsXCdfYf5r7-GUmrG-29">
          <mxGeometry width="50" height="50" relative="1" as="geometry">
            <mxPoint x="500" y="-720" as="sourcePoint" />
            <mxPoint x="550" y="-770" as="targetPoint" />
          </mxGeometry>
        </mxCell>
        <mxCell id="4MNxsXCdfYf5r7-GUmrG-33" value="" style="endArrow=classic;html=1;rounded=0;exitX=0;exitY=0.3333333333333333;exitDx=0;exitDy=0;exitPerimeter=0;entryX=1;entryY=0.5;entryDx=0;entryDy=0;" edge="1" parent="1" source="4MNxsXCdfYf5r7-GUmrG-6" target="4MNxsXCdfYf5r7-GUmrG-29">
          <mxGeometry width="50" height="50" relative="1" as="geometry">
            <mxPoint x="830" y="-770" as="sourcePoint" />
            <mxPoint x="1009" y="-568" as="targetPoint" />
          </mxGeometry>
        </mxCell>
        <mxCell id="4MNxsXCdfYf5r7-GUmrG-36" value="" style="endArrow=classic;html=1;rounded=0;entryX=0;entryY=0.5;entryDx=0;entryDy=0;exitX=1;exitY=0.3333333333333333;exitDx=0;exitDy=0;exitPerimeter=0;" edge="1" parent="1" source="4MNxsXCdfYf5r7-GUmrG-4" target="4MNxsXCdfYf5r7-GUmrG-35">
          <mxGeometry width="50" height="50" relative="1" as="geometry">
            <mxPoint x="420" y="-777" as="sourcePoint" />
            <mxPoint x="559" y="-625" as="targetPoint" />
          </mxGeometry>
        </mxCell>
        <mxCell id="4MNxsXCdfYf5r7-GUmrG-37" value="" style="endArrow=classic;html=1;rounded=0;exitX=0;exitY=0.3333333333333333;exitDx=0;exitDy=0;exitPerimeter=0;entryX=1;entryY=0.5;entryDx=0;entryDy=0;" edge="1" parent="1" source="4MNxsXCdfYf5r7-GUmrG-6" target="4MNxsXCdfYf5r7-GUmrG-35">
          <mxGeometry width="50" height="50" relative="1" as="geometry">
            <mxPoint x="910" y="-777" as="sourcePoint" />
            <mxPoint x="766" y="-625" as="targetPoint" />
          </mxGeometry>
        </mxCell>
        <mxCell id="4MNxsXCdfYf5r7-GUmrG-42" value="" style="endArrow=classic;html=1;rounded=0;entryX=0;entryY=0.5;entryDx=0;entryDy=0;exitX=1;exitY=0.3333333333333333;exitDx=0;exitDy=0;exitPerimeter=0;" edge="1" parent="1" source="4MNxsXCdfYf5r7-GUmrG-4" target="4MNxsXCdfYf5r7-GUmrG-30">
          <mxGeometry width="50" height="50" relative="1" as="geometry">
            <mxPoint x="430" y="-767" as="sourcePoint" />
            <mxPoint x="559" y="-405" as="targetPoint" />
          </mxGeometry>
        </mxCell>
        <mxCell id="4MNxsXCdfYf5r7-GUmrG-44" value="" style="endArrow=classic;html=1;rounded=0;exitX=0;exitY=0.3333333333333333;exitDx=0;exitDy=0;exitPerimeter=0;entryX=1;entryY=0.5;entryDx=0;entryDy=0;" edge="1" parent="1" source="4MNxsXCdfYf5r7-GUmrG-6" target="4MNxsXCdfYf5r7-GUmrG-30">
          <mxGeometry width="50" height="50" relative="1" as="geometry">
            <mxPoint x="910" y="-777" as="sourcePoint" />
            <mxPoint x="766" y="-625" as="targetPoint" />
          </mxGeometry>
        </mxCell>
        <mxCell id="DrD98HBQLlv03pVXicRW-1" value="" style="endArrow=classic;html=1;rounded=0;entryX=0;entryY=0.5;entryDx=0;entryDy=0;exitX=1;exitY=0.3333333333333333;exitDx=0;exitDy=0;exitPerimeter=0;" edge="1" parent="1" source="4MNxsXCdfYf5r7-GUmrG-4" target="4MNxsXCdfYf5r7-GUmrG-3">
          <mxGeometry width="50" height="50" relative="1" as="geometry">
            <mxPoint x="410" y="-780" as="sourcePoint" />
            <mxPoint x="559" y="-625" as="targetPoint" />
          </mxGeometry>
        </mxCell>
        <mxCell id="RtSj9nyPrv8z8E6BE1nY-15" value="" style="endArrow=classic;html=1;rounded=0;entryX=0;entryY=0.5;entryDx=0;entryDy=0;exitX=1;exitY=0.3333333333333333;exitDx=0;exitDy=0;exitPerimeter=0;" edge="1" parent="1" source="4MNxsXCdfYf5r7-GUmrG-4" target="4MNxsXCdfYf5r7-GUmrG-28">
          <mxGeometry width="50" height="50" relative="1" as="geometry">
            <mxPoint x="420" y="-777" as="sourcePoint" />
            <mxPoint x="559" y="-705" as="targetPoint" />
          </mxGeometry>
        </mxCell>
        <mxCell id="RtSj9nyPrv8z8E6BE1nY-18" value="" style="endArrow=classic;html=1;rounded=0;exitX=0;exitY=0.3333333333333333;exitDx=0;exitDy=0;exitPerimeter=0;entryX=0.965;entryY=0.7;entryDx=0;entryDy=0;entryPerimeter=0;" edge="1" parent="1" source="4MNxsXCdfYf5r7-GUmrG-7" target="4MNxsXCdfYf5r7-GUmrG-29">
          <mxGeometry width="50" height="50" relative="1" as="geometry">
            <mxPoint x="920" y="-767" as="sourcePoint" />
            <mxPoint x="766" y="-285" as="targetPoint" />
          </mxGeometry>
        </mxCell>
        <mxCell id="RtSj9nyPrv8z8E6BE1nY-20" value="" style="endArrow=classic;html=1;rounded=0;entryX=1;entryY=0.5;entryDx=0;entryDy=0;exitX=0;exitY=0.3333333333333333;exitDx=0;exitDy=0;exitPerimeter=0;" edge="1" parent="1" source="4MNxsXCdfYf5r7-GUmrG-6" target="4MNxsXCdfYf5r7-GUmrG-3">
          <mxGeometry width="50" height="50" relative="1" as="geometry">
            <mxPoint x="900" y="-785" as="sourcePoint" />
            <mxPoint x="756.2500000000016" y="-785" as="targetPoint" />
          </mxGeometry>
        </mxCell>
        <mxCell id="RtSj9nyPrv8z8E6BE1nY-31" value="" style="endArrow=classic;html=1;rounded=0;entryX=0;entryY=0.5;entryDx=0;entryDy=0;exitX=1;exitY=0.3333333333333333;exitDx=0;exitDy=0;exitPerimeter=0;" edge="1" parent="1" source="4MNxsXCdfYf5r7-GUmrG-4" target="4MNxsXCdfYf5r7-GUmrG-34">
          <mxGeometry width="50" height="50" relative="1" as="geometry">
            <mxPoint x="350" y="-430" as="sourcePoint" />
            <mxPoint x="350" y="-520" as="targetPoint" />
          </mxGeometry>
        </mxCell>
        <mxCell id="RtSj9nyPrv8z8E6BE1nY-41" value="" style="endArrow=classic;html=1;rounded=0;entryX=1;entryY=0.5;entryDx=0;entryDy=0;exitX=0;exitY=0.3333333333333333;exitDx=0;exitDy=0;exitPerimeter=0;" edge="1" parent="1" source="4MNxsXCdfYf5r7-GUmrG-7" target="RtSj9nyPrv8z8E6BE1nY-33">
          <mxGeometry width="50" height="50" relative="1" as="geometry">
            <mxPoint x="1270" y="-440" as="sourcePoint" />
            <mxPoint x="1153" y="-85" as="targetPoint" />
          </mxGeometry>
        </mxCell>
        <mxCell id="RtSj9nyPrv8z8E6BE1nY-39" value="" style="endArrow=classic;html=1;rounded=0;entryX=1;entryY=0.5;entryDx=0;entryDy=0;exitX=0;exitY=0.3333333333333333;exitDx=0;exitDy=0;exitPerimeter=0;" edge="1" parent="1" source="4MNxsXCdfYf5r7-GUmrG-7" target="RtSj9nyPrv8z8E6BE1nY-35">
          <mxGeometry width="50" height="50" relative="1" as="geometry">
            <mxPoint x="1270" y="-450" as="sourcePoint" />
            <mxPoint x="1260" y="-230" as="targetPoint" />
          </mxGeometry>
        </mxCell>
        <mxCell id="RtSj9nyPrv8z8E6BE1nY-40" value="" style="endArrow=classic;html=1;rounded=0;entryX=1;entryY=0.5;entryDx=0;entryDy=0;exitX=0;exitY=0.3333333333333333;exitDx=0;exitDy=0;exitPerimeter=0;" edge="1" parent="1" source="4MNxsXCdfYf5r7-GUmrG-7" target="RtSj9nyPrv8z8E6BE1nY-34">
          <mxGeometry width="50" height="50" relative="1" as="geometry">
            <mxPoint x="1270" y="-440" as="sourcePoint" />
            <mxPoint x="1153" y="-175" as="targetPoint" />
          </mxGeometry>
        </mxCell>
        <mxCell id="RtSj9nyPrv8z8E6BE1nY-43" value="" style="endArrow=classic;html=1;rounded=0;entryX=1;entryY=0.5;entryDx=0;entryDy=0;exitX=0;exitY=0.3333333333333333;exitDx=0;exitDy=0;exitPerimeter=0;" edge="1" parent="1" source="4MNxsXCdfYf5r7-GUmrG-6" target="RtSj9nyPrv8z8E6BE1nY-42">
          <mxGeometry width="50" height="50" relative="1" as="geometry">
            <mxPoint x="1235" y="-667" as="sourcePoint" />
            <mxPoint x="831" y="-785" as="targetPoint" />
          </mxGeometry>
        </mxCell>
        <mxCell id="RtSj9nyPrv8z8E6BE1nY-47" value="" style="endArrow=classic;html=1;rounded=0;exitX=1;exitY=0.3333333333333333;exitDx=0;exitDy=0;exitPerimeter=0;entryX=0;entryY=0.5;entryDx=0;entryDy=0;" edge="1" parent="1" source="4MNxsXCdfYf5r7-GUmrG-5" target="RtSj9nyPrv8z8E6BE1nY-45">
          <mxGeometry width="50" height="50" relative="1" as="geometry">
            <mxPoint x="410" y="-257" as="sourcePoint" />
            <mxPoint x="610" y="-395" as="targetPoint" />
            <Array as="points" />
          </mxGeometry>
        </mxCell>
        <mxCell id="RtSj9nyPrv8z8E6BE1nY-48" value="" style="endArrow=classic;html=1;rounded=0;exitX=0;exitY=0.3333333333333333;exitDx=0;exitDy=0;exitPerimeter=0;entryX=1;entryY=0.5;entryDx=0;entryDy=0;" edge="1" parent="1" source="4MNxsXCdfYf5r7-GUmrG-6" target="RtSj9nyPrv8z8E6BE1nY-45">
          <mxGeometry width="50" height="50" relative="1" as="geometry">
            <mxPoint x="1235" y="-667" as="sourcePoint" />
            <mxPoint x="818" y="-395" as="targetPoint" />
          </mxGeometry>
        </mxCell>
        <mxCell id="RtSj9nyPrv8z8E6BE1nY-69" value="" style="endArrow=classic;html=1;rounded=0;exitX=0;exitY=0.3333333333333333;exitDx=0;exitDy=0;exitPerimeter=0;entryX=1;entryY=0.5;entryDx=0;entryDy=0;" edge="1" parent="1" source="4MNxsXCdfYf5r7-GUmrG-6" target="RtSj9nyPrv8z8E6BE1nY-67">
          <mxGeometry width="50" height="50" relative="1" as="geometry">
            <mxPoint x="1245" y="-657" as="sourcePoint" />
            <mxPoint x="818" y="-315" as="targetPoint" />
          </mxGeometry>
        </mxCell>
        <mxCell id="RtSj9nyPrv8z8E6BE1nY-71" value="" style="endArrow=classic;html=1;rounded=0;exitX=1;exitY=0.3333333333333333;exitDx=0;exitDy=0;exitPerimeter=0;entryX=0;entryY=0.5;entryDx=0;entryDy=0;" edge="1" parent="1" source="4MNxsXCdfYf5r7-GUmrG-4" target="RtSj9nyPrv8z8E6BE1nY-70">
          <mxGeometry width="50" height="50" relative="1" as="geometry">
            <mxPoint x="420" y="-777" as="sourcePoint" />
            <mxPoint x="590" as="targetPoint" />
          </mxGeometry>
        </mxCell>
        <mxCell id="RtSj9nyPrv8z8E6BE1nY-73" value="" style="endArrow=classic;html=1;rounded=0;entryX=1;entryY=0.5;entryDx=0;entryDy=0;exitX=0;exitY=0.3333333333333333;exitDx=0;exitDy=0;exitPerimeter=0;" edge="1" parent="1" source="4MNxsXCdfYf5r7-GUmrG-6" target="RtSj9nyPrv8z8E6BE1nY-70">
          <mxGeometry width="50" height="50" relative="1" as="geometry">
            <mxPoint x="1235" y="-667" as="sourcePoint" />
            <mxPoint x="816" y="-75" as="targetPoint" />
          </mxGeometry>
        </mxCell>
        <mxCell id="RtSj9nyPrv8z8E6BE1nY-74" value="" style="endArrow=classic;html=1;rounded=0;exitX=1;exitY=0.3333333333333333;exitDx=0;exitDy=0;exitPerimeter=0;entryX=0;entryY=0.5;entryDx=0;entryDy=0;" edge="1" parent="1" source="4MNxsXCdfYf5r7-GUmrG-4" target="FskOcWJOCiyLMdRQB566-1">
          <mxGeometry width="50" height="50" relative="1" as="geometry">
            <mxPoint x="430" y="-767" as="sourcePoint" />
            <mxPoint x="606" y="5" as="targetPoint" />
          </mxGeometry>
        </mxCell>
        <mxCell id="RtSj9nyPrv8z8E6BE1nY-76" value="" style="endArrow=classic;html=1;rounded=0;exitX=1;exitY=0.3333333333333333;exitDx=0;exitDy=0;exitPerimeter=0;entryX=0;entryY=0.5;entryDx=0;entryDy=0;" edge="1" parent="1" source="4MNxsXCdfYf5r7-GUmrG-4" target="RtSj9nyPrv8z8E6BE1nY-32">
          <mxGeometry width="50" height="50" relative="1" as="geometry">
            <mxPoint x="440" y="-757" as="sourcePoint" />
            <mxPoint x="606" y="90" as="targetPoint" />
          </mxGeometry>
        </mxCell>
        <mxCell id="RtSj9nyPrv8z8E6BE1nY-79" value="" style="endArrow=classic;html=1;rounded=0;exitX=1;exitY=0.3333333333333333;exitDx=0;exitDy=0;exitPerimeter=0;entryX=0;entryY=0.5;entryDx=0;entryDy=0;" edge="1" parent="1" source="4MNxsXCdfYf5r7-GUmrG-5" target="4MNxsXCdfYf5r7-GUmrG-30">
          <mxGeometry width="50" height="50" relative="1" as="geometry">
            <mxPoint x="340" y="143" as="sourcePoint" />
            <mxPoint x="610" y="-315" as="targetPoint" />
            <Array as="points" />
          </mxGeometry>
        </mxCell>
        <mxCell id="RtSj9nyPrv8z8E6BE1nY-81" value="" style="endArrow=classic;html=1;rounded=0;entryX=1;entryY=0.5;entryDx=0;entryDy=0;exitX=0;exitY=0.3333333333333333;exitDx=0;exitDy=0;exitPerimeter=0;" edge="1" parent="1" source="4MNxsXCdfYf5r7-GUmrG-6" target="RtSj9nyPrv8z8E6BE1nY-80">
          <mxGeometry width="50" height="50" relative="1" as="geometry">
            <mxPoint x="1230" y="-387" as="sourcePoint" />
            <mxPoint x="814" y="5" as="targetPoint" />
          </mxGeometry>
        </mxCell>
        <mxCell id="RtSj9nyPrv8z8E6BE1nY-82" value="" style="endArrow=classic;html=1;rounded=0;entryX=0;entryY=0.5;entryDx=0;entryDy=0;exitX=1;exitY=0.3333333333333333;exitDx=0;exitDy=0;exitPerimeter=0;" edge="1" parent="1" source="4MNxsXCdfYf5r7-GUmrG-4" target="RtSj9nyPrv8z8E6BE1nY-80">
          <mxGeometry width="50" height="50" relative="1" as="geometry">
            <mxPoint x="390" y="-410" as="sourcePoint" />
            <mxPoint x="610" y="-395" as="targetPoint" />
          </mxGeometry>
        </mxCell>
        <mxCell id="RtSj9nyPrv8z8E6BE1nY-84" value="" style="endArrow=classic;html=1;rounded=0;entryX=0;entryY=0.5;entryDx=0;entryDy=0;exitX=1;exitY=0.3333333333333333;exitDx=0;exitDy=0;exitPerimeter=0;" edge="1" parent="1" source="4MNxsXCdfYf5r7-GUmrG-4" target="RtSj9nyPrv8z8E6BE1nY-83">
          <mxGeometry width="50" height="50" relative="1" as="geometry">
            <mxPoint x="390" y="-390" as="sourcePoint" />
            <mxPoint x="610" y="63" as="targetPoint" />
          </mxGeometry>
        </mxCell>
        <mxCell id="RtSj9nyPrv8z8E6BE1nY-85" value="" style="endArrow=classic;html=1;rounded=0;entryX=1;entryY=0.5;entryDx=0;entryDy=0;" edge="1" parent="1" target="RtSj9nyPrv8z8E6BE1nY-83">
          <mxGeometry width="50" height="50" relative="1" as="geometry">
            <mxPoint x="1220" y="-400" as="sourcePoint" />
            <mxPoint x="814" y="5" as="targetPoint" />
          </mxGeometry>
        </mxCell>
        <mxCell id="RtSj9nyPrv8z8E6BE1nY-89" value="" style="endArrow=classic;html=1;rounded=0;entryX=1;entryY=0.5;entryDx=0;entryDy=0;exitX=0;exitY=0.3333333333333333;exitDx=0;exitDy=0;exitPerimeter=0;" edge="1" parent="1" source="4MNxsXCdfYf5r7-GUmrG-7" target="RtSj9nyPrv8z8E6BE1nY-86">
          <mxGeometry width="50" height="50" relative="1" as="geometry">
            <mxPoint x="1230" y="223" as="sourcePoint" />
            <mxPoint x="1107" y="165" as="targetPoint" />
          </mxGeometry>
        </mxCell>
      </root>
    </mxGraphModel>
  </diagram>
</mxfile>
